<svg width="224" height="47" viewBox="0 0 224 47" fill="none" xmlns="http://www.w3.org/2000/svg">
<path fill-rule="evenodd" clip-rule="evenodd" d="M0 9.38666L15.242 25.2267L28.1487 11.8137L41.0554 25.2267L56.2974 9.38666H30.4841H25.8133H0Z" fill="#FCFCFC"/>
<mask id="path-2-inside-1_1_6" fill="white">
<path fill-rule="evenodd" clip-rule="evenodd" d="M0 21.12L15.242 36.96L28.1487 23.547L41.0554 36.96L56.2974 21.12H30.4841H25.8133H0Z"/>
</mask>
<path d="M15.242 36.96L14.8818 37.3067L15.242 37.6811L15.6023 37.3067L15.242 36.96ZM0 21.12V20.62H-1.17501L-0.360288 21.4667L0 21.12ZM28.1487 23.547L28.509 23.2003L28.1487 22.8259L27.7884 23.2003L28.1487 23.547ZM41.0554 36.96L40.6951 37.3067L41.0554 37.6811L41.4157 37.3067L41.0554 36.96ZM56.2974 21.12L56.6577 21.4667L57.4724 20.62H56.2974V21.12ZM15.6023 36.6133L0.360288 20.7733L-0.360288 21.4667L14.8818 37.3067L15.6023 36.6133ZM27.7884 23.2003L14.8818 36.6133L15.6023 37.3067L28.509 23.8937L27.7884 23.2003ZM41.4157 36.6133L28.509 23.2003L27.7884 23.8937L40.6951 37.3067L41.4157 36.6133ZM55.9371 20.7733L40.6951 36.6133L41.4157 37.3067L56.6577 21.4667L55.9371 20.7733ZM30.4841 21.62H56.2974V20.62H30.4841V21.62ZM25.8133 21.62H30.4841V20.62H25.8133V21.62ZM0 21.62H25.8133V20.62H0V21.62Z" fill="#FCFCFC" mask="url(#path-2-inside-1_1_6)"/>
<mask id="path-4-inside-2_1_6" fill="white">
<path fill-rule="evenodd" clip-rule="evenodd" d="M0 28.16L15.242 44L28.1487 30.587L41.0554 44L56.2974 28.16H30.4841H25.8133H0Z"/>
</mask>
<path d="M15.242 44L14.8818 44.3467L15.242 44.7211L15.6023 44.3467L15.242 44ZM0 28.16V27.66H-1.17501L-0.360288 28.5067L0 28.16ZM28.1487 30.587L28.509 30.2403L28.1487 29.8659L27.7884 30.2403L28.1487 30.587ZM41.0554 44L40.6951 44.3467L41.0554 44.7211L41.4157 44.3467L41.0554 44ZM56.2974 28.16L56.6577 28.5067L57.4724 27.66H56.2974V28.16ZM15.6023 43.6533L0.360288 27.8133L-0.360288 28.5067L14.8818 44.3467L15.6023 43.6533ZM27.7884 30.2403L14.8818 43.6533L15.6023 44.3467L28.509 30.9337L27.7884 30.2403ZM41.4157 43.6533L28.509 30.2403L27.7884 30.9337L40.6951 44.3467L41.4157 43.6533ZM55.9371 27.8133L40.6951 43.6533L41.4157 44.3467L56.6577 28.5067L55.9371 27.8133ZM30.4841 28.66H56.2974V27.66H30.4841V28.66ZM25.8133 28.66H30.4841V27.66H25.8133V28.66ZM0 28.66H25.8133V27.66H0V28.66Z" fill="#FCFCFC" mask="url(#path-4-inside-2_1_6)"/>
<mask id="path-6-inside-3_1_6" fill="white">
<path fill-rule="evenodd" clip-rule="evenodd" d="M0 0L15.242 15.84L28.1487 2.427L41.0554 15.84L56.2974 0H30.4841H25.8133H0Z"/>
</mask>
<path d="M15.242 15.84L14.8818 16.1867L15.242 16.5611L15.6023 16.1867L15.242 15.84ZM0 0V-0.5H-1.17501L-0.360288 0.346688L0 0ZM28.1487 2.427L28.509 2.08031L28.1487 1.70589L27.7884 2.08031L28.1487 2.427ZM41.0554 15.84L40.6951 16.1867L41.0554 16.5611L41.4157 16.1867L41.0554 15.84ZM56.2974 0L56.6577 0.346688L57.4724 -0.5H56.2974V0ZM15.6023 15.4933L0.360288 -0.346688L-0.360288 0.346688L14.8818 16.1867L15.6023 15.4933ZM27.7884 2.08031L14.8818 15.4933L15.6023 16.1867L28.509 2.77369L27.7884 2.08031ZM41.4157 15.4933L28.509 2.08031L27.7884 2.77369L40.6951 16.1867L41.4157 15.4933ZM55.9371 -0.346688L40.6951 15.4933L41.4157 16.1867L56.6577 0.346688L55.9371 -0.346688ZM30.4841 0.5H56.2974V-0.5H30.4841V0.5ZM25.8133 0.5H30.4841V-0.5H25.8133V0.5ZM0 0.5H25.8133V-0.5H0V0.5Z" fill="#FCFCFC" mask="url(#path-6-inside-3_1_6)"/>
<path d="M75.072 33.288C73.2267 33.288 71.6107 32.8827 70.224 32.072C68.848 31.2507 67.7707 29.9493 66.992 28.168C66.224 26.3867 65.84 24.0507 65.84 21.16C65.84 18.2693 66.2293 15.9333 67.008 14.152C67.7867 12.3707 68.8693 11.0747 70.256 10.264C71.6427 9.44267 73.248 9.032 75.072 9.032C76.9173 9.032 78.5333 9.44267 79.92 10.264C81.3067 11.0747 82.384 12.3707 83.152 14.152C83.9307 15.9333 84.32 18.2693 84.32 21.16C84.32 24.0507 83.9307 26.3867 83.152 28.168C82.3733 29.9493 81.2907 31.2507 79.904 32.072C78.5173 32.8827 76.9067 33.288 75.072 33.288ZM75.072 31.944C76.6187 31.944 77.968 31.608 79.12 30.936C80.2827 30.2533 81.184 29.128 81.824 27.56C82.4747 25.992 82.8 23.88 82.8 21.224C82.8 18.5253 82.4747 16.3867 81.824 14.808C81.184 13.2187 80.2827 12.0827 79.12 11.4C77.9573 10.7173 76.608 10.376 75.072 10.376C73.536 10.376 72.1867 10.7173 71.024 11.4C69.872 12.072 68.9707 13.192 68.32 14.76C67.68 16.328 67.36 18.44 67.36 21.096C67.36 23.7947 67.68 25.9387 68.32 27.528C68.9707 29.1067 69.872 30.2373 71.024 30.92C72.1867 31.6027 73.536 31.944 75.072 31.944ZM89.1163 33V9.64C89.6709 9.544 90.2416 9.45333 90.8283 9.368C91.4256 9.28267 92.0603 9.21867 92.7323 9.176C93.4149 9.12267 94.1509 9.096 94.9403 9.096C97.9376 9.096 100.156 9.64 101.596 10.728C103.036 11.816 103.756 13.5227 103.756 15.848C103.756 17.3733 103.399 18.648 102.684 19.672C101.98 20.6853 100.919 21.448 99.5003 21.96C98.0816 22.472 96.3056 22.728 94.1723 22.728C93.4363 22.728 92.7909 22.7173 92.2363 22.696C91.6923 22.664 91.1323 22.6267 90.5563 22.584V33H89.1163ZM103.756 33L95.0843 21.784H96.8123L105.532 33H103.756ZM94.1562 21.448C97.0576 21.448 99.1429 20.9893 100.412 20.072C101.692 19.144 102.332 17.7467 102.332 15.88C102.332 14.568 102.076 13.512 101.564 12.712C101.063 11.9013 100.268 11.3147 99.1803 10.952C98.0923 10.5787 96.6789 10.392 94.9403 10.392C94.0229 10.392 93.2336 10.424 92.5723 10.488C91.9109 10.552 91.2389 10.6427 90.5563 10.76V21.288C91.0043 21.3307 91.4096 21.3627 91.7723 21.384C92.1349 21.4053 92.4976 21.4213 92.8603 21.432C93.2336 21.4427 93.6656 21.448 94.1562 21.448ZM124.179 33L114.403 20.872L123.539 9.32H125.235L115.907 21.048V20.584L125.907 33H124.179ZM109.523 33V9.32H110.963V33H109.523ZM110.674 21.512V20.168H115.219V21.512H110.674ZM128.648 33V9.32H142.28V10.648H130.088V33H128.648ZM129.816 21.544V20.216H140.744V21.544H129.816ZM153.728 33.288C151.883 33.288 150.267 32.8827 148.88 32.072C147.504 31.2507 146.427 29.9493 145.648 28.168C144.88 26.3867 144.496 24.0507 144.496 21.16C144.496 18.2693 144.886 15.9333 145.664 14.152C146.443 12.3707 147.526 11.0747 148.912 10.264C150.299 9.44267 151.904 9.032 153.728 9.032C155.574 9.032 157.19 9.44267 158.576 10.264C159.963 11.0747 161.04 12.3707 161.808 14.152C162.587 15.9333 162.976 18.2693 162.976 21.16C162.976 24.0507 162.587 26.3867 161.808 28.168C161.03 29.9493 159.947 31.2507 158.56 32.072C157.174 32.8827 155.563 33.288 153.728 33.288ZM153.728 31.944C155.275 31.944 156.624 31.608 157.776 30.936C158.939 30.2533 159.84 29.128 160.48 27.56C161.131 25.992 161.456 23.88 161.456 21.224C161.456 18.5253 161.131 16.3867 160.48 14.808C159.84 13.2187 158.939 12.0827 157.776 11.4C156.614 10.7173 155.264 10.376 153.728 10.376C152.192 10.376 150.843 10.7173 149.68 11.4C148.528 12.072 147.627 13.192 146.976 14.76C146.336 16.328 146.016 18.44 146.016 21.096C146.016 23.7947 146.336 25.9387 146.976 27.528C147.627 29.1067 148.528 30.2373 149.68 30.92C150.843 31.6027 152.192 31.944 153.728 31.944ZM167.773 33V9.64C168.327 9.544 168.898 9.45333 169.485 9.368C170.082 9.28267 170.717 9.21867 171.389 9.176C172.071 9.12267 172.807 9.096 173.597 9.096C176.594 9.096 178.813 9.64 180.253 10.728C181.693 11.816 182.413 13.5227 182.413 15.848C182.413 17.3733 182.055 18.648 181.34 19.672C180.637 20.6853 179.575 21.448 178.157 21.96C176.738 22.472 174.962 22.728 172.829 22.728C172.093 22.728 171.447 22.7173 170.893 22.696C170.349 22.664 169.789 22.6267 169.213 22.584V33H167.773ZM182.413 33L173.741 21.784H175.469L184.189 33H182.413ZM172.812 21.448C175.714 21.448 177.799 20.9893 179.069 20.072C180.349 19.144 180.989 17.7467 180.989 15.88C180.989 14.568 180.733 13.512 180.221 12.712C179.719 11.9013 178.925 11.3147 177.837 10.952C176.749 10.5787 175.335 10.392 173.597 10.392C172.679 10.392 171.89 10.424 171.229 10.488C170.567 10.552 169.895 10.6427 169.213 10.76V21.288C169.661 21.3307 170.066 21.3627 170.429 21.384C170.791 21.4053 171.154 21.4213 171.517 21.432C171.89 21.4427 172.322 21.448 172.812 21.448ZM196.059 33.288C194.565 33.288 193.205 33.08 191.979 32.664C190.763 32.248 189.712 31.5707 188.827 30.632C187.941 29.6933 187.259 28.4507 186.779 26.904C186.299 25.3573 186.059 23.4533 186.059 21.192C186.059 18.28 186.469 15.9333 187.291 14.152C188.123 12.36 189.301 11.0587 190.827 10.248C192.363 9.43733 194.192 9.032 196.315 9.032C197.232 9.032 198.107 9.096 198.939 9.224C199.771 9.34133 200.603 9.52267 201.435 9.768V11.128C200.56 10.8507 199.701 10.6533 198.859 10.536C198.016 10.4187 197.157 10.36 196.283 10.36C194.437 10.36 192.864 10.7067 191.563 11.4C190.272 12.0827 189.285 13.2133 188.603 14.792C187.92 16.36 187.579 18.472 187.579 21.128C187.579 23.8907 187.931 26.0613 188.635 27.64C189.339 29.208 190.325 30.3227 191.595 30.984C192.864 31.6347 194.368 31.96 196.107 31.96C197.003 31.96 197.867 31.8907 198.699 31.752C199.541 31.6027 200.453 31.3573 201.435 31.016V32.376C200.635 32.664 199.787 32.888 198.891 33.048C198.005 33.208 197.061 33.288 196.059 33.288ZM204.991 33V9.32H218.767V10.648H206.431V31.672H218.927V33H204.991ZM205.983 21.496V20.168H217.231V21.496H205.983Z" fill="white"/>
</svg>
