<svg width="124" height="145" viewBox="0 0 124 145" fill="none" xmlns="http://www.w3.org/2000/svg">
<path d="M5.5 60L4.19478 58.6948C2.7897 57.2897 2 55.3837 2 53.3966C2 51.5327 2.6947 49.7358 3.94845 48.3567L5.03647 47.1599C6.32565 45.7418 7.94409 44.6628 9.74895 44.0182L10.0417 43.9137C12.6142 42.9949 15.4117 42.9152 18.0324 43.686L19.7043 44.1777C21.5564 44.7225 23.3105 45.5572 24.9013 46.6509L27.0667 48.1396C29.3474 49.7076 31.4326 51.5424 33.2781 53.605L39 60C41.1071 62.8973 45.2965 63.2453 47.8528 60.7355L95.8063 13.6538C97.2123 12.2734 99.1039 11.5 101.074 11.5C101.689 11.5 102.302 11.5754 102.898 11.7245L103.443 11.8606C105.128 12.2819 106.702 13.0617 108.058 14.1468L109.388 15.2104C110.458 16.066 111.404 17.0653 112.2 18.1799L112.616 18.7624C113.202 19.5829 113.662 20.4863 113.981 21.4429L114.105 21.8141C114.367 22.5996 114.5 23.4221 114.5 24.25C114.5 25.0779 114.367 25.9004 114.105 26.6859L114.086 26.741C113.7 27.8986 113.057 28.9534 112.204 29.8261L93.5629 48.9008C92.7901 49.6915 93.0112 51.0056 94 51.5L95.6541 52.327C97.1768 53.0884 98.4116 54.3232 99.173 55.8459C99.3905 56.281 99.5673 56.7354 99.7009 57.2032L100.282 59.2373C100.427 59.7433 100.5 60.267 100.5 60.7932V61.0845C100.5 62.8933 101.449 64.5694 103 65.5L104.499 66.4996C105.497 67.1649 106.427 67.9272 107.275 68.7753L108.044 69.5444C108.679 70.1786 109.225 70.8946 109.67 71.6733C110.542 73.198 111 74.9237 111 76.6798V77.5V78.0572C111 79.1302 111.87 80 112.943 80C113.307 80 113.664 80.1023 113.972 80.2953L116.452 81.8448C117.148 82.2802 117.793 82.7932 118.374 83.3741L118.482 83.4816C119.802 84.8023 120.739 86.4572 121.192 88.2692C121.397 89.0867 121.5 89.9261 121.5 90.7687V90.9189C121.5 91.9661 121.331 93.0065 121 94C120.669 94.9935 120.18 95.9271 119.551 96.7649L119 97.5L99.5 118L90.5 128L81 137C77.7126 139.63 73.8539 141.452 69.7342 142.319L69.2472 142.422C67.4207 142.806 65.5591 143 63.6926 143C60.2624 143 56.8637 142.345 53.6788 141.072L53.5 141C51.177 139.673 49.0414 138.041 47.1496 136.15L43 132L32.5 121.5L25.5 113L20 105C18.0181 101.036 16.4965 96.8181 15.5 92.5C14.5016 89.1719 13.7693 85.7698 13.3101 82.3256L13 80L12.5 74L12 70L11.9372 69.7489C11.6479 68.5916 11.1617 67.4926 10.5 66.5L9.5 65L8.5 63.5L8.27279 63.1971C7.42533 62.0671 6.49874 60.9987 5.5 60Z" fill="url(#paint0_linear_2_42)"/>
<path d="M17.0852 21.3055L22.3827 25.6681C23.4283 26.5292 24.7406 27 26.0951 27H26.5366C28.8826 27 30.9443 25.4448 31.5888 23.1891C32.1455 21.2409 31.5323 19.1462 30.013 17.8056L26.5856 14.7814C24.9638 13.3504 22.7489 12.7944 20.6435 13.2898L18.8548 13.7106C16.8892 14.1731 15.5 15.9271 15.5 17.9464C15.5 19.2467 16.0815 20.4789 17.0852 21.3055Z" fill="url(#paint1_linear_2_42)"/>
<path d="M42.3199 13.3856L43.3163 14.809C44.0582 15.8688 45.2705 16.5 46.5641 16.5C47.1796 16.5 47.7866 16.3567 48.3371 16.0815L48.6056 15.9472C50.3795 15.0603 51.5 13.2472 51.5 11.2639V9.87001C51.5 8.96499 51.3273 8.06827 50.9912 7.22798L50.1641 5.16019C49.2296 2.82409 46.6362 1.62126 44.2493 2.41691C42.3088 3.06372 41 4.87964 41 6.92503V9.19836C41 10.6965 41.4608 12.1583 42.3199 13.3856Z" fill="url(#paint2_linear_2_42)"/>
<path d="M68.0963 14.2847L63.9343 18.1866C62.7219 19.3232 62.1413 20.9895 62.3764 22.6346C62.7329 25.1301 64.8724 27 67.3932 27C69.0291 27 70.5643 26.21 71.5152 24.8788L73.973 21.4378C74.6409 20.5027 75 19.3822 75 18.233V17.2757C75 15.5993 73.9794 14.0917 72.4229 13.4691C70.9446 12.8779 69.2578 13.1958 68.0963 14.2847Z" fill="url(#paint3_linear_2_42)"/>
<path d="M5.5 60L4.19478 58.6948C2.7897 57.2897 2 55.3837 2 53.3966C2 51.5327 2.6947 49.7358 3.94845 48.3567L5.03647 47.1599C6.32565 45.7418 7.94409 44.6628 9.74895 44.0182L10.0417 43.9137C12.6142 42.9949 15.4117 42.9152 18.0324 43.686L19.7043 44.1777C21.5564 44.7225 23.3105 45.5572 24.9013 46.6509L27.0667 48.1396C29.3474 49.7076 31.4326 51.5424 33.2781 53.605L39 60C41.1071 62.8973 45.2965 63.2453 47.8528 60.7355L95.8063 13.6538C97.2123 12.2734 99.1039 11.5 101.074 11.5C101.689 11.5 102.302 11.5754 102.898 11.7245L103.443 11.8606C105.128 12.2819 106.702 13.0617 108.058 14.1468L109.388 15.2104C110.458 16.066 111.404 17.0653 112.2 18.1799L112.616 18.7624C113.202 19.5829 113.662 20.4863 113.981 21.4429L114.105 21.8141C114.367 22.5996 114.5 23.4221 114.5 24.25C114.5 25.0779 114.367 25.9004 114.105 26.6859L114.086 26.741C113.7 27.8986 113.057 28.9534 112.204 29.8261L93.5629 48.9008C92.7901 49.6915 93.0112 51.0056 94 51.5L95.6541 52.327C97.1768 53.0884 98.4116 54.3232 99.173 55.8459C99.3905 56.281 99.5673 56.7354 99.7009 57.2032L100.282 59.2373C100.427 59.7433 100.5 60.267 100.5 60.7932V61.0845C100.5 62.8933 101.449 64.5694 103 65.5L104.499 66.4996C105.497 67.1649 106.427 67.9272 107.275 68.7753L108.044 69.5444C108.679 70.1786 109.225 70.8946 109.67 71.6733C110.542 73.198 111 74.9237 111 76.6798V77.5V78.0572C111 79.1302 111.87 80 112.943 80C113.307 80 113.664 80.1023 113.972 80.2953L116.452 81.8448C117.148 82.2802 117.793 82.7932 118.374 83.3741L118.482 83.4816C119.802 84.8023 120.739 86.4572 121.192 88.2692C121.397 89.0867 121.5 89.9261 121.5 90.7687V90.9189C121.5 91.9661 121.331 93.0065 121 94C120.669 94.9935 120.18 95.9271 119.551 96.7649L119 97.5L99.5 118L90.5 128L81 137C77.7126 139.63 73.8539 141.452 69.7342 142.319L69.2472 142.422C67.4207 142.806 65.5591 143 63.6926 143C60.2624 143 56.8637 142.345 53.6788 141.072L53.5 141C51.177 139.673 49.0414 138.041 47.1496 136.15L43 132L32.5 121.5L25.5 113L20 105C18.0181 101.036 16.4965 96.8181 15.5 92.5C14.5016 89.1719 13.7693 85.7698 13.3101 82.3256L13 80L12.5 74L12 70L11.9372 69.7489C11.6479 68.5916 11.1617 67.4926 10.5 66.5L9.5 65L8.5 63.5L8.27279 63.1971C7.42533 62.0671 6.49874 60.9987 5.5 60Z" stroke="url(#paint4_linear_2_42)" stroke-width="4"/>
<path d="M17.0852 21.3055L22.3827 25.6681C23.4283 26.5292 24.7406 27 26.0951 27H26.5366C28.8826 27 30.9443 25.4448 31.5888 23.1891C32.1455 21.2409 31.5323 19.1462 30.013 17.8056L26.5856 14.7814C24.9638 13.3504 22.7489 12.7944 20.6435 13.2898L18.8548 13.7106C16.8892 14.1731 15.5 15.9271 15.5 17.9464C15.5 19.2467 16.0815 20.4789 17.0852 21.3055Z" stroke="url(#paint5_linear_2_42)" stroke-width="4"/>
<path d="M42.3199 13.3856L43.3163 14.809C44.0582 15.8688 45.2705 16.5 46.5641 16.5C47.1796 16.5 47.7866 16.3567 48.3371 16.0815L48.6056 15.9472C50.3795 15.0603 51.5 13.2472 51.5 11.2639V9.87001C51.5 8.96499 51.3273 8.06827 50.9912 7.22798L50.1641 5.16019C49.2296 2.82409 46.6362 1.62126 44.2493 2.41691C42.3088 3.06372 41 4.87964 41 6.92503V9.19836C41 10.6965 41.4608 12.1583 42.3199 13.3856Z" stroke="url(#paint6_linear_2_42)" stroke-width="4"/>
<path d="M68.0963 14.2847L63.9343 18.1866C62.7219 19.3232 62.1413 20.9895 62.3764 22.6346C62.7329 25.1301 64.8724 27 67.3932 27C69.0291 27 70.5643 26.21 71.5152 24.8788L73.973 21.4378C74.6409 20.5027 75 19.3822 75 18.233V17.2757C75 15.5993 73.9794 14.0917 72.4229 13.4691C70.9446 12.8779 69.2578 13.1958 68.0963 14.2847Z" stroke="url(#paint7_linear_2_42)" stroke-width="4"/>
<defs>
<linearGradient id="paint0_linear_2_42" x1="-45.5" y1="97.5" x2="210" y2="112.5" gradientUnits="userSpaceOnUse">
<stop stop-color="#6B248C"/>
<stop offset="1" stop-color="#006CEC"/>
</linearGradient>
<linearGradient id="paint1_linear_2_42" x1="-45.5" y1="97.5" x2="210" y2="112.5" gradientUnits="userSpaceOnUse">
<stop stop-color="#6B248C"/>
<stop offset="1" stop-color="#006CEC"/>
</linearGradient>
<linearGradient id="paint2_linear_2_42" x1="-45.5" y1="97.5" x2="210" y2="112.5" gradientUnits="userSpaceOnUse">
<stop stop-color="#6B248C"/>
<stop offset="1" stop-color="#006CEC"/>
</linearGradient>
<linearGradient id="paint3_linear_2_42" x1="-45.5" y1="97.5" x2="210" y2="112.5" gradientUnits="userSpaceOnUse">
<stop stop-color="#6B248C"/>
<stop offset="1" stop-color="#006CEC"/>
</linearGradient>
<linearGradient id="paint4_linear_2_42" x1="-55" y1="46" x2="210" y2="143" gradientUnits="userSpaceOnUse">
<stop stop-color="#6B248C"/>
<stop offset="1" stop-color="#006CEC"/>
</linearGradient>
<linearGradient id="paint5_linear_2_42" x1="-55" y1="46" x2="210" y2="143" gradientUnits="userSpaceOnUse">
<stop stop-color="#6B248C"/>
<stop offset="1" stop-color="#006CEC"/>
</linearGradient>
<linearGradient id="paint6_linear_2_42" x1="-55" y1="46" x2="210" y2="143" gradientUnits="userSpaceOnUse">
<stop stop-color="#6B248C"/>
<stop offset="1" stop-color="#006CEC"/>
</linearGradient>
<linearGradient id="paint7_linear_2_42" x1="-55" y1="46" x2="210" y2="143" gradientUnits="userSpaceOnUse">
<stop stop-color="#6B248C"/>
<stop offset="1" stop-color="#006CEC"/>
</linearGradient>
</defs>
</svg>
